<svg width="17" height="16" viewBox="0 0 17 16" fill="none" xmlns="http://www.w3.org/2000/svg">
<path fill-rule="evenodd" clip-rule="evenodd" d="M3.15359 6.05439H8.80513C9.55241 6.05439 10.1597 6.59267 10.1597 7.23446V12.2649C10.1597 12.9067 9.55244 13.445 8.80513 13.445H3.15359C2.42963 13.445 1.82237 12.9067 1.82237 12.2649V7.23446C1.82237 6.5927 2.42959 6.05439 3.15359 6.05439ZM7.59076 2.12106H13.2656C13.9896 2.12106 14.5968 2.65934 14.5968 3.30113V8.31094C14.5968 8.97336 13.9896 9.51167 13.2656 9.51167H11.9344V7.23449C11.9344 6.48925 11.5841 5.80603 11.0236 5.30922V5.28855H11.0003C10.4398 4.79173 9.66907 4.48118 8.80509 4.48118H6.25957V3.30112C6.25957 2.65936 6.86679 2.12106 7.59079 2.12106L7.59076 2.12106ZM11.9347 11.0849H13.2659C14.1066 11.0849 14.8773 10.7743 15.4378 10.2775L15.4611 10.2568C16.0216 9.76003 16.3719 9.07678 16.3719 8.3109V3.30109C16.3719 2.55585 16.0216 1.87264 15.4611 1.35515H15.4378C14.8773 0.858336 14.1066 0.547791 13.2659 0.547791H7.59104C6.75034 0.547791 5.97961 0.858336 5.41915 1.35515H5.39583C4.83538 1.85197 4.48505 2.55588 4.48505 3.30109V4.48115H3.15383C2.31313 4.48115 1.5424 4.7917 0.958633 5.28851C0.398177 5.806 0.0478516 6.48924 0.0478516 7.23445V12.2649C0.0478516 13.0102 0.398177 13.6934 0.958633 14.1902V14.2109C1.51909 14.7077 2.31317 15.0182 3.15383 15.0182H8.80537C9.66939 15.0182 10.4401 14.7077 11.0006 14.2109L11.0239 14.1902C11.5843 13.6934 11.9347 13.0101 11.9347 12.2649V11.0849Z" fill="black"/>
</svg>
