<svg width="19" height="17" viewBox="0 0 19 17" fill="none" xmlns="http://www.w3.org/2000/svg">
<path d="M0.362305 16.7229H8.80155V9.24194H0.362305V16.7229ZM2.05 10.7383H7.11365V15.2155H2.05V10.7383Z" fill="black"/>
<path d="M3.73828 12.2347H5.42598V13.731H3.73828V12.2347Z" fill="black"/>
<path d="M13.8652 15.2269H15.5533V16.7232H13.8652V15.2269Z" fill="black"/>
<path d="M17.2402 15.2269H18.9285V16.7232H17.2402V15.2269Z" fill="black"/>
<path d="M17.2408 10.7382H15.5529V9.24183H10.4893V16.7228H12.1774V12.2341H13.8649V13.7304H18.9285V9.2417H17.2406L17.2408 10.7382Z" fill="black"/>
<path d="M0.362305 7.74593H8.80155V0.264954H0.362305V7.74593ZM2.05 1.76088H7.11365V6.24956L2.05 6.24938V1.76088Z" fill="black"/>
<path d="M3.73828 3.25739H5.42598V4.75362H3.73828V3.25739Z" fill="black"/>
<path d="M10.4893 0.265015V7.74599H18.929V0.265015H10.4893ZM17.241 6.24962H12.1773V1.76094H17.241V6.24962Z" fill="black"/>
<path d="M13.8652 3.25739H15.5533V4.75362H13.8652V3.25739Z" fill="black"/>
</svg>
